<svg width="15" height="16" viewBox="0 0 15 16" fill="none" xmlns="http://www.w3.org/2000/svg">
<path d="M3.75 14.25C3.40625 14.25 3.11188 14.1275 2.86688 13.8825C2.62188 13.6375 2.49958 13.3433 2.5 13V3C2.5 2.65625 2.6225 2.36188 2.8675 2.11688C3.1125 1.87188 3.40667 1.74958 3.75 1.75H11.25C11.5938 1.75 11.8881 1.8725 12.1331 2.1175C12.3781 2.3625 12.5004 2.65667 12.5 3V13C12.5 13.3438 12.3775 13.6381 12.1325 13.8831C11.8875 14.1281 11.5933 14.2504 11.25 14.25H3.75ZM6.875 7.375L8.4375 6.4375L10 7.375V3H6.875V7.375Z" fill="#FF2D1B"/>
</svg>
